<?xml version="1.0" standalone="no"?>
<!DOCTYPE svg PUBLIC "-//W3C//DTD SVG 20010904//EN"
 "http://www.w3.org/TR/2001/REC-SVG-20010904/DTD/svg10.dtd">
<svg version="1.0" xmlns="http://www.w3.org/2000/svg"
 width="700.000000pt" height="700.000000pt" viewBox="0 0 700.000000 700.000000"
 preserveAspectRatio="xMidYMid meet">
<metadata>
Created by potrace 1.14, written by Peter Selinger 2001-2017
</metadata>
<g transform="translate(0.000000,700.000000) scale(0.100000,-0.100000)"
fill="#000000" stroke="none">
<path d="M3278 6996 c-1 -2 -39 -6 -83 -10 -44 -3 -100 -8 -125 -12 -1437
-185 -2603 -1212 -2960 -2609 -34 -135 -74 -340 -85 -442 -27 -245 -27 -668 0
-835 2 -13 6 -45 10 -73 11 -92 16 -119 46 -258 82 -375 234 -759 420 -1059
27 -44 49 -82 49 -84 0 -3 4 -10 10 -17 5 -7 46 -64 91 -127 417 -590 1024
-1043 1712 -1279 203 -70 453 -130 646 -157 25 -3 57 -8 71 -10 194 -30 695
-25 907 10 21 4 54 9 73 11 19 3 46 7 60 10 14 2 39 7 55 10 724 136 1436 542
1935 1104 36 41 70 79 76 85 6 6 48 61 94 121 343 451 562 948 664 1505 13 74
27 164 31 200 4 36 9 81 12 100 8 72 10 518 3 595 -17 173 -21 211 -25 225 -2
8 -7 35 -10 60 -24 169 -90 425 -163 627 -380 1055 -1246 1866 -2328 2177
-128 37 -339 84 -414 92 -25 3 -52 7 -60 9 -8 3 -42 7 -75 10 -33 4 -76 9 -95
12 -37 5 -536 13 -542 9z m487 -80 c192 -18 335 -39 470 -70 11 -2 43 -9 70
-15 125 -28 386 -115 533 -177 523 -223 975 -566 1341 -1019 171 -213 347
-504 461 -765 83 -189 163 -440 209 -650 25 -117 35 -173 55 -338 29 -225 25
-596 -9 -842 -101 -743 -447 -1439 -974 -1960 -146 -145 -210 -201 -345 -305
-243 -186 -567 -368 -831 -467 -246 -92 -505 -162 -710 -192 -22 -4 -53 -9
-70 -11 -200 -32 -699 -38 -844 -10 -9 2 -44 6 -76 10 -33 4 -69 9 -80 11 -10
2 -37 6 -59 10 -73 11 -250 53 -376 90 -432 125 -903 376 -1222 651 -105 91
-231 209 -283 265 -108 117 -130 142 -214 247 -334 420 -582 963 -677 1481
-11 58 -24 138 -29 180 -3 25 -8 56 -10 70 -24 141 -24 593 0 770 2 14 6 48 9
75 3 28 8 61 11 75 8 42 17 94 20 110 21 137 97 409 161 574 98 250 216 480
357 691 58 86 162 228 189 256 7 8 35 41 63 74 61 74 267 281 357 359 366 318
818 561 1313 705 112 33 358 83 470 96 17 2 48 6 70 9 22 3 83 9 135 12 52 3
96 7 98 8 5 5 349 -2 417 -8z"/>
<path d="M2739 5305 c-1 0 -3 -33 -4 -73 l-2 -72 861 2 861 3 0 70 0 70 -857
0 c-472 0 -859 0 -859 0z"/>
<path d="M3768 4545 c-1 -1 -23 -5 -48 -8 -260 -31 -621 -245 -943 -559 -21
-21 -39 -38 -40 -38 -1 0 -2 39 -2 88 1 157 -28 310 -79 427 l-25 55 -211 0
-210 0 29 -57 c43 -83 77 -178 96 -269 15 -71 17 -200 17 -1285 l0 -1205 189
0 c104 0 190 2 190 5 1 3 2 465 3 1026 l1 1020 31 30 c254 250 513 427 724
494 239 76 481 18 655 -156 143 -143 227 -349 259 -633 3 -25 5 -437 5 -916
l1 -870 190 0 191 0 -4 950 c-2 523 -7 971 -11 996 -86 516 -343 824 -746 895
-65 11 -252 19 -262 10z"/>
</g>
</svg>
